<mxfile host="65bd71144e">
    <diagram id="1VJ4A4ErR4bO_sIXdVbA" name="Page-1">
        <mxGraphModel dx="1066" dy="731" grid="1" gridSize="10" guides="1" tooltips="1" connect="1" arrows="1" fold="1" page="1" pageScale="1" pageWidth="850" pageHeight="1100" math="0" shadow="0">
            <root>
                <mxCell id="0"/>
                <mxCell id="1" parent="0"/>
                <mxCell id="53" value="" style="html=1;fontSize=10;" vertex="1" parent="1">
                    <mxGeometry x="130" y="150" width="490" height="550" as="geometry"/>
                </mxCell>
                <mxCell id="20" style="edgeStyle=none;html=1;exitX=1;exitY=0.3333333333333333;exitDx=0;exitDy=0;exitPerimeter=0;entryX=0;entryY=0.5;entryDx=0;entryDy=0;fontColor=#FFFFFF;endArrow=none;endFill=0;" parent="1" source="2" target="18" edge="1">
                    <mxGeometry relative="1" as="geometry"/>
                </mxCell>
                <mxCell id="43" style="edgeStyle=none;html=1;exitX=1;exitY=0.3333333333333333;exitDx=0;exitDy=0;exitPerimeter=0;entryX=0;entryY=0.5;entryDx=0;entryDy=0;fontSize=10;endArrow=none;endFill=0;" edge="1" parent="1" source="2" target="32">
                    <mxGeometry relative="1" as="geometry"/>
                </mxCell>
                <mxCell id="48" style="edgeStyle=none;html=1;exitX=1;exitY=0.3333333333333333;exitDx=0;exitDy=0;exitPerimeter=0;entryX=0;entryY=0.5;entryDx=0;entryDy=0;fontSize=10;endArrow=none;endFill=0;" edge="1" parent="1" source="2" target="25">
                    <mxGeometry relative="1" as="geometry"/>
                </mxCell>
                <mxCell id="52" style="edgeStyle=none;html=1;exitX=1;exitY=0.3333333333333333;exitDx=0;exitDy=0;exitPerimeter=0;entryX=0;entryY=0.5;entryDx=0;entryDy=0;fontSize=10;startArrow=none;startFill=0;endArrow=none;endFill=0;" edge="1" parent="1" source="2" target="51">
                    <mxGeometry relative="1" as="geometry"/>
                </mxCell>
                <mxCell id="2" value="&lt;span id=&quot;docs-internal-guid-9c9111f2-7fff-4801-d1b3-890194a6ea42&quot;&gt;&lt;span style=&quot;font-size: 11pt; font-family: Sarabun, sans-serif; background-color: transparent; font-variant-numeric: normal; font-variant-east-asian: normal; font-variant-alternates: normal; font-variant-position: normal; vertical-align: baseline;&quot;&gt;&lt;font color=&quot;#ffffff&quot;&gt;Instructor&lt;/font&gt;&lt;/span&gt;&lt;/span&gt;" style="shape=umlActor;verticalLabelPosition=bottom;verticalAlign=top;html=1;" parent="1" vertex="1">
                    <mxGeometry x="40" y="380" width="30" height="60" as="geometry"/>
                </mxCell>
                <mxCell id="41" style="edgeStyle=none;html=1;exitX=0;exitY=0.3333333333333333;exitDx=0;exitDy=0;exitPerimeter=0;fontSize=10;endArrow=none;endFill=0;" edge="1" parent="1" source="3" target="19">
                    <mxGeometry relative="1" as="geometry"/>
                </mxCell>
                <mxCell id="47" style="edgeStyle=none;html=1;exitX=0;exitY=0.3333333333333333;exitDx=0;exitDy=0;exitPerimeter=0;entryX=1;entryY=0.5;entryDx=0;entryDy=0;fontSize=10;endArrow=none;endFill=0;" edge="1" parent="1" source="3" target="25">
                    <mxGeometry relative="1" as="geometry"/>
                </mxCell>
                <mxCell id="3" value="&lt;span id=&quot;docs-internal-guid-3a2d6300-7fff-b218-7243-1213b10bfaf1&quot;&gt;&lt;span style=&quot;font-size: 11pt; font-family: Sarabun, sans-serif; background-color: transparent; font-variant-numeric: normal; font-variant-east-asian: normal; font-variant-alternates: normal; font-variant-position: normal; vertical-align: baseline;&quot;&gt;&lt;font color=&quot;#ffffff&quot;&gt;Participant&lt;/font&gt;&lt;/span&gt;&lt;/span&gt;" style="shape=umlActor;verticalLabelPosition=bottom;verticalAlign=top;html=1;" parent="1" vertex="1">
                    <mxGeometry x="690" y="380" width="30" height="60" as="geometry"/>
                </mxCell>
                <mxCell id="18" value="&lt;span style=&quot;text-align: left; font-size: 10px;&quot; id=&quot;docs-internal-guid-37cb4701-7fff-291a-5f33-83eef2918ecb&quot;&gt;&lt;span style=&quot;font-size: 10px; font-family: Sarabun, sans-serif; background-color: transparent; font-variant-numeric: normal; font-variant-east-asian: normal; font-variant-alternates: normal; font-variant-position: normal; vertical-align: baseline;&quot;&gt;UC1: สร้างกิจกรรม&lt;/span&gt;&lt;/span&gt;" style="ellipse;whiteSpace=wrap;html=1;fontColor=#FFFFFF;fontSize=10;" parent="1" vertex="1">
                    <mxGeometry x="330" y="250" width="100" height="50" as="geometry"/>
                </mxCell>
                <mxCell id="19" value="&lt;span id=&quot;docs-internal-guid-8285c140-7fff-ec61-f3a0-9c05c8e5bda9&quot; style=&quot;font-size: 10px;&quot;&gt;&lt;span style=&quot;font-size: 10px; font-family: Sarabun, sans-serif; background-color: transparent; font-variant-numeric: normal; font-variant-east-asian: normal; font-variant-alternates: normal; font-variant-position: normal; vertical-align: baseline;&quot;&gt;UC2: ลงทะเบียน&lt;br&gt;ขอเข้าร่วมกิจกรรม&lt;/span&gt;&lt;/span&gt;" style="ellipse;whiteSpace=wrap;html=1;fontColor=#FFFFFF;fontSize=10;" parent="1" vertex="1">
                    <mxGeometry x="450" y="385" width="100" height="50" as="geometry"/>
                </mxCell>
                <mxCell id="25" value="&lt;font face=&quot;Sarabun, sans-serif&quot;&gt;UC5: ค้นหากิจกรรม&lt;/font&gt;" style="ellipse;whiteSpace=wrap;html=1;fontColor=#FFFFFF;fontSize=10;" parent="1" vertex="1">
                    <mxGeometry x="330" y="550" width="100" height="50" as="geometry"/>
                </mxCell>
                <mxCell id="44" style="edgeStyle=none;html=1;exitX=1;exitY=0.5;exitDx=0;exitDy=0;entryX=0;entryY=0.3333333333333333;entryDx=0;entryDy=0;entryPerimeter=0;fontSize=10;endArrow=none;endFill=0;" edge="1" parent="1" source="30" target="3">
                    <mxGeometry relative="1" as="geometry"/>
                </mxCell>
                <mxCell id="30" value="&lt;span id=&quot;docs-internal-guid-6efcb810-7fff-bee3-7e33-1298a6fec367&quot; style=&quot;font-size: 10px;&quot;&gt;&lt;span style=&quot;font-size: 10px; font-family: Sarabun, sans-serif; background-color: transparent; font-variant-numeric: normal; font-variant-east-asian: normal; font-variant-alternates: normal; font-variant-position: normal; vertical-align: baseline;&quot;&gt;UC4: การแจ้งเตือน&lt;/span&gt;&lt;/span&gt;" style="ellipse;whiteSpace=wrap;html=1;fontColor=#FFFFFF;fontSize=10;" parent="1" vertex="1">
                    <mxGeometry x="330" y="480" width="100" height="50" as="geometry"/>
                </mxCell>
                <mxCell id="32" value="&lt;span id=&quot;docs-internal-guid-aa71b8e9-7fff-9409-1483-86484e0ed149&quot; style=&quot;font-size: 10px;&quot;&gt;&lt;span style=&quot;font-size: 10px; font-family: Sarabun, sans-serif; background-color: transparent; font-variant-numeric: normal; font-variant-east-asian: normal; font-variant-alternates: normal; font-variant-position: normal; vertical-align: baseline;&quot;&gt;UC3: จัดการใบประกาศ&lt;/span&gt;&lt;/span&gt;" style="ellipse;whiteSpace=wrap;html=1;fontColor=#FFFFFF;fontSize=10;" parent="1" vertex="1">
                    <mxGeometry x="210" y="385" width="100" height="50" as="geometry"/>
                </mxCell>
                <mxCell id="40" value="system bordery" style="text;align=center;fontStyle=1;verticalAlign=middle;spacingLeft=3;spacingRight=3;strokeColor=none;rotatable=0;points=[[0,0.5],[1,0.5]];portConstraint=eastwest;fontSize=10;" vertex="1" parent="1">
                    <mxGeometry x="210" y="114" width="80" height="26" as="geometry"/>
                </mxCell>
                <mxCell id="45" value="&amp;lt;&amp;lt;include&amp;gt;&amp;gt;" style="endArrow=open;endSize=12;dashed=1;html=1;fontSize=10;exitX=0.5;exitY=1;exitDx=0;exitDy=0;entryX=1;entryY=0;entryDx=0;entryDy=0;endFill=0;" edge="1" parent="1" source="19" target="30">
                    <mxGeometry width="160" relative="1" as="geometry">
                        <mxPoint x="310" y="490" as="sourcePoint"/>
                        <mxPoint x="470" y="490" as="targetPoint"/>
                    </mxGeometry>
                </mxCell>
                <mxCell id="46" value="&amp;lt;&amp;lt;extends&amp;gt;&amp;gt;" style="endArrow=none;endSize=12;dashed=1;html=1;fontSize=10;entryX=0;entryY=0;entryDx=0;entryDy=0;exitX=0.5;exitY=1;exitDx=0;exitDy=0;endFill=0;startArrow=open;startFill=0;" edge="1" parent="1" source="32" target="30">
                    <mxGeometry width="160" relative="1" as="geometry">
                        <mxPoint x="470" y="445" as="sourcePoint"/>
                        <mxPoint x="390" y="490" as="targetPoint"/>
                    </mxGeometry>
                </mxCell>
                <mxCell id="50" value="&amp;lt;&amp;lt;extends&amp;gt;&amp;gt;" style="endArrow=none;endSize=12;dashed=1;html=1;fontSize=10;exitX=0.5;exitY=1;exitDx=0;exitDy=0;entryX=0.5;entryY=0;entryDx=0;entryDy=0;startArrow=open;startFill=0;endFill=0;" edge="1" parent="1" source="51" target="30">
                    <mxGeometry width="160" relative="1" as="geometry">
                        <mxPoint x="354.64466094067257" y="497.3223304703363" as="sourcePoint"/>
                        <mxPoint x="380" y="530" as="targetPoint"/>
                    </mxGeometry>
                </mxCell>
                <mxCell id="51" value="&lt;span id=&quot;docs-internal-guid-6efcb810-7fff-bee3-7e33-1298a6fec367&quot; style=&quot;font-size: 10px;&quot;&gt;&lt;span style=&quot;font-size: 10px; font-family: Sarabun, sans-serif; background-color: transparent; font-variant-numeric: normal; font-variant-east-asian: normal; font-variant-alternates: normal; font-variant-position: normal; vertical-align: baseline;&quot;&gt;UC6: จัดการกิจกรรม&lt;/span&gt;&lt;/span&gt;" style="ellipse;whiteSpace=wrap;html=1;fontColor=#FFFFFF;fontSize=10;" vertex="1" parent="1">
                    <mxGeometry x="330" y="320" width="100" height="50" as="geometry"/>
                </mxCell>
                <mxCell id="54" value="Activity Management&#10;system" style="text;align=center;fontStyle=1;verticalAlign=middle;spacingLeft=3;spacingRight=3;strokeColor=none;rotatable=0;points=[[0,0.5],[1,0.5]];portConstraint=eastwest;fontSize=10;" vertex="1" parent="1">
                    <mxGeometry x="340" y="160" width="80" height="26" as="geometry"/>
                </mxCell>
            </root>
        </mxGraphModel>
    </diagram>
</mxfile>